<svg id="Layer_1" data-name="Layer 1" xmlns="http://www.w3.org/2000/svg" viewBox="0 0 61.79 14.88"><title>chatterbox-logo</title><path d="M7.55,13c.4,1.07-.62,2.27-1.3,2.75a3.24,3.24,0,0,1-3.35.34,3.09,3.09,0,0,1-1.38-2.69,8.13,8.13,0,0,1,4.58-7,2.09,2.09,0,0,1,2.16,0,3,3,0,0,1,.85,1.17A1.83,1.83,0,0,1,9,9.08c-.24.5-.46,1.12-.64,1.58,0,.13-.16.22-.35.1a1.26,1.26,0,0,1-.38-1.54c.26-.85.83-1.76.46-2.15s-2.88.82-4.32,3.2S2.49,15,3.27,15.62c1,.83,2.72-.24,3.94-2.62C7.29,12.82,7.47,12.82,7.55,13Z" transform="translate(-1.53 -1.71)"/><path d="M12.41,16.55c-1.34,0-1.68-1-1.2-2.37.53-1.55,1.92-3.22,1.66-3.36s-2,1-2.9,2.48a21,21,0,0,0-1.55,3c-.06.14-.18.18-.27.06-.26-.29-.4-.74-.06-1.7a56,56,0,0,1,5.19-8.85c.14-.19.3-.18.38,0a2.59,2.59,0,0,1-.45,2.27c-.38.64-1.23,1.94-1.92,3A3.4,3.4,0,0,1,13.21,10a1.13,1.13,0,0,1,.62,1.68c-.35.71-1.12,1.87-1.49,2.71s-.32,1.68.27,1.65,1.54-1.18,2-2.21a.15.15,0,0,1,.29,0,1.23,1.23,0,0,1-.16,1A3,3,0,0,1,12.41,16.55Z" transform="translate(-1.53 -1.71)"/><path d="M20.19,10.12q.22-.31.38-.1a1.74,1.74,0,0,1,0,1.78c-.35.72-1.15,1.92-1.54,2.77s-.42,1.58.13,1.55,1.54-1.12,2.1-2.22c.08-.14.19-.16.26,0a1.44,1.44,0,0,1-.14,1A2.87,2.87,0,0,1,19,16.58a1.24,1.24,0,0,1-1.31-1.31,2.8,2.8,0,0,1-2,1.25c-1.49,0-1.79-2-.46-4s2.56-2.61,3.36-2.61a1,1,0,0,1,1,1.15C19.82,10.71,20,10.37,20.19,10.12Zm-1.28.66c-.51,0-1.68,1-2.56,2.42S15.29,16,15.91,16s1.49-1,2.3-2.42C19.23,11.81,19.37,10.82,18.91,10.77Z" transform="translate(-1.53 -1.71)"/><path d="M22,9.62c-.16-.21,0-.3.21-.3l1.28,0c.48-.83.94-1.55,1.2-1.92.16-.21.3-.21.38,0a2.21,2.21,0,0,1-.24,1.86c.85,0,1.68-.1,2.34-.13.48-.83.9-1.54,1.15-1.87s.3-.18.38,0a2.17,2.17,0,0,1-.21,1.82,1.15,1.15,0,0,1,1,.51c.11.19,0,.3-.21.29s-.69,0-1.2,0c-.61,1.12-1.58,2.69-2.19,4-.53,1.18-.34,2.16.32,2.19s1.62-1.1,2.23-2.3c.1-.19.27-.22.34,0a1.34,1.34,0,0,1-.16.91A3.29,3.29,0,0,1,26,16.54a1.51,1.51,0,0,1-1.39-1.31,2.76,2.76,0,0,1-2.18,1.31c-1.07,0-1.89-1.22-1.14-3.06A37,37,0,0,1,23,10.12,1.44,1.44,0,0,1,22,9.62Zm2.38.46c-.62,1.07-1.49,2.51-2.08,3.83s-.34,2.16.34,2.19,1.65-1.2,2.16-2.38c.37-.86,1.15-2.4,1.91-3.78C25.9,10,25.07,10.05,24.38,10.08Z" transform="translate(-1.53 -1.71)"/><path d="M36.15,16.54c-1.21-.06-1.7-1.15-1.29-2.45a9.53,9.53,0,0,1,2-3,3.73,3.73,0,0,1-1.92.61c-1.33,2.79-3.06,4.8-5,4.83s-2.72-2-1.68-4,2.64-2.88,3.44-2.42a2.94,2.94,0,0,1,.95.82A2.14,2.14,0,0,1,32.14,13a1.91,1.91,0,0,1-2.95.48c-.51,1.46-.11,2.5.71,2.53,1.76.08,3.52-2.45,4.4-4.48-1.23-.51.34-2.64,1-2.67.5,0,.34,1-.06,2A4.29,4.29,0,0,0,37,10.15c.19-.13.34-.21.45,0,.32.35.72,1.12.24,1.65a8.94,8.94,0,0,0-1.84,2.79c-.27.88-.08,1.52.4,1.54.67,0,1.49-1,2-2.21.06-.13.18-.16.24,0a1.44,1.44,0,0,1-.08,1A2.55,2.55,0,0,1,36.15,16.54Zm-4.93-4.15c.51-.66.85-1.49.64-1.66s-1.66.7-2.4,2.18c0,.08-.08.19-.13.27C30.12,13.65,30.74,13,31.22,12.39Z" transform="translate(-1.53 -1.71)"/><path d="M40.36,7.48c-.08-.18,0-.26.16-.27,1.12-.1,2.56-.88,3.63-.94A1.64,1.64,0,0,1,46,7.56a3,3,0,0,1-.56,2.67,6.57,6.57,0,0,1-2.5,1.9,2,2,0,0,1,.77.67A1.85,1.85,0,0,1,43.38,15a5.46,5.46,0,0,1-2.8,1.49,2,2,0,0,1-1.34-.08,2.24,2.24,0,0,1-.82-.74c-.24-.35-.4-.61,0-1.63a29.68,29.68,0,0,1,3.06-5.92A1.2,1.2,0,0,1,40.36,7.48Zm.91,5.12a1.79,1.79,0,0,1-1-.11A14.65,14.65,0,0,0,39.21,15c-.18.56,0,.75.51.69A5.27,5.27,0,0,0,42.81,14c.59-.74.59-1.46-.86-1.54C41.72,12.53,41.5,12.57,41.27,12.6Zm4.18-4.9c-.32-.83-1.91-.1-3,.26A2.9,2.9,0,0,1,42,9.52c-.32.59-.78,1.34-1.25,2.16C43.88,10.95,45.85,8.79,45.45,7.7Z" transform="translate(-1.53 -1.71)"/><path d="M49.79,13c-.34,1.36-1.34,3-2.53,3.38a1.76,1.76,0,0,1-2-.7c-.71-.93-.46-2.32.26-3.6A3.71,3.71,0,0,1,48,10a1.09,1.09,0,0,1,1.09.54c.37.5.85.61.75,1.76,0,.13,0,.24,0,.37s.19,0,.32,0,.11.08,0,.16A.66.66,0,0,1,49.79,13Zm-1.36-.4a2,2,0,0,1-.74-1.41,5.58,5.58,0,0,0-1.23,1.5c-.67,1.22-.91,2.69-.5,3s1.42-.19,2.21-1.67a8.52,8.52,0,0,0,.56-1.28A1.21,1.21,0,0,1,48.43,12.61ZM49,11.19c-.08-.51-.4-.42-.48,0a1.32,1.32,0,0,0,.35,1.14A3.06,3.06,0,0,0,49,11.19ZM55,14.89a2.71,2.71,0,0,1-2.1,1.65c-.85,0-1.3-.5-1.49-1.79a3.1,3.1,0,0,0,0-.48,17.63,17.63,0,0,0-2.21,2.18c-.13.14-.35.24-.34,0a2.84,2.84,0,0,1,1-1.65,15.15,15.15,0,0,1,1.44-1.3,23.93,23.93,0,0,0-.62-3.22c-.08-.21.06-.26.29-.24.59,0,1,.5,1.14,1.2.08.38.16.9.24,1.41a15,15,0,0,0,2.42-2.42c.16-.21.35-.22.35.06a2.75,2.75,0,0,1-.88,1.6,16.26,16.26,0,0,1-1.79,1.54c.11.69.22,1.36.29,1.74.11.64.32.88.51.88.59,0,1.28-1.12,1.74-2.14.08-.16.21-.13.26,0A1.3,1.3,0,0,1,55,14.89Z" transform="translate(-1.53 -1.71)"/><path d="M55.31,9.71c2-2,0-2,0-2s-4,0-4-3,6-3,6-3,6,0,6,3-6,3-6,3S57.31,8.71,55.31,9.71Z" transform="translate(-1.53 -1.71)"/></svg>